# xmcd
#
# Track frame offsets: 
#        150
#        18826
#        38205
#        50571
#        72456
#        87089
#        102232
#
# Disc length: 1601 seconds
#
# Revision: 0
# Processed by: cddbd v1.5PL3 Copyright (c) Steve Scherf et al.
# Submitted via: ExactAudioCopy v0.95a4
#
DISCID=54063f07
DTITLE=Atticus - Coming Around Again
DYEAR=1900
DGENRE=
TTITLE0=Coming Around Again
TTITLE1=Say You're Leaving
TTITLE2=Call My Name
TTITLE3=Nothing More to Say
TTITLE4=Easy Loving You
TTITLE5=Only One
TTITLE6=Time for Me
EXTD=All songs written and produced by Atticus PO Box 128 Somis, CA 93
EXTD=066 805-985-8673 atticus2000@hotmail.com Smoke and Mirrors Music
EXTT0=
EXTT1=
EXTT2=
EXTT3=
EXTT4=
EXTT5=
EXTT6=
PLAYORDER=
